<?xml version="1.0" encoding="UTF-8"?>
<svg width="64px" height="64px" viewBox="0 0 64 64" version="1.1" xmlns="http://www.w3.org/2000/svg" xmlns:xlink="http://www.w3.org/1999/xlink">
    <!-- Generator: Sketch 61 (89581) - https://sketch.com -->
    <title>logo/sign</title>
    <desc>Created with Sketch.</desc>
    <g id="logo/sign" stroke="none" stroke-width="1" fill="none" fill-rule="evenodd">
        <path d="M51.5846645,60 L51.5846645,60.4549895 L50.1054313,60.4549895 L50.1054313,64 L49.485623,64 L49.485623,60.4549895 L48,60.4549895 L48,60 L51.5846645,60 Z M52.6932907,60 C52.7486691,60 52.7912672,60.0046522 52.8210863,60.0139567 C52.8509054,60.0232613 52.8796591,60.0493136 52.9073482,60.0921144 L54.4888179,62.5540823 C54.518637,62.5987441 54.5447283,62.6457313 54.5670927,62.6950454 C54.589457,62.7443594 54.6112885,62.7941379 54.6325879,62.8443824 C54.6538872,62.792277 54.6762512,62.7424985 54.6996805,62.6950454 C54.7231098,62.6475922 54.7497336,62.5996746 54.7795527,62.551291 L56.3290735,60.0921144 C56.3567627,60.0493136 56.3855164,60.0232613 56.4153355,60.0139567 C56.4451546,60.0046522 56.4877527,60 56.543131,60 L57,60 L57,64 L56.456869,64 L56.456869,61.0607118 C56.456869,61.0216327 56.457934,60.979763 56.4600639,60.9351012 C56.4621938,60.8904394 56.4653887,60.8448479 56.4696486,60.7983252 L54.9009585,63.2993719 C54.8477101,63.3831128 54.7731634,63.4249826 54.6773163,63.4249826 L54.5878594,63.4249826 C54.4920123,63.4249826 54.4174657,63.3831128 54.3642173,63.2993719 L52.7603834,60.7899512 C52.7667732,60.8383347 52.7715655,60.8857872 52.7747604,60.9323098 C52.7779553,60.9788325 52.7795527,61.0216327 52.7795527,61.0607118 L52.7795527,64 L52.2364217,64 L52.2364217,60 L52.6932907,60 Z M32.2702813,48.0798466 L42.0964188,51.5428861 C42.4369129,51.6603582 42.7158599,51.9101154 42.8703793,52.235857 C43.0248986,52.5615987 43.0419845,52.9359073 42.9177853,53.2744058 L39.4593999,63.0964514 C39.3410912,63.4366712 39.0915429,63.715216 38.7665694,63.8697861 C38.4415959,64.0243563 38.0683121,64.0420548 37.7302072,63.9189232 L27.8997467,60.4558838 C27.5600424,60.3375307 27.2821082,60.087408 27.1284492,59.7617662 C26.9747902,59.4361243 26.9583058,59.0623004 27.0827032,58.7243641 L30.5410886,48.9023185 C30.6603794,48.5628251 30.9100532,48.285048 31.2347013,48.1306326 C31.5593495,47.9762172 31.9321182,47.9579362 32.2702813,48.0798466 Z M18.2695281,43.0803336 L28.0974974,46.5432671 C28.4373233,46.6617315 28.7155457,46.9116079 28.8699369,47.2370088 C29.0243281,47.5624097 29.0420061,47.9361844 28.9190171,48.2747339 L25.459987,58.096479 C25.3416562,58.4366884 25.0920614,58.7152247 24.7670273,58.8697901 C24.4419931,59.0243555 24.0686398,59.0420535 23.7304719,58.9189257 L13.9025026,55.4559922 C13.5626767,55.3375279 13.2844543,55.0876514 13.1300631,54.7622505 C12.9756719,54.4368496 12.9579939,54.063075 13.0809829,53.7245255 L16.540013,43.8984517 C16.6601956,43.5597597 16.910277,43.2829999 17.2348884,43.129448 C17.5594998,42.975896 17.9318604,42.9582201 18.2695281,43.0803336 Z M37.4073156,34.0351081 L47.1741017,37.6693114 C47.5118343,37.7936979 47.7856744,38.0484113 47.9343745,38.376482 C48.0830745,38.7045527 48.0942275,39.0786073 47.9653388,39.4149842 L44.3351438,49.1756045 C44.2089571,49.5122419 43.9542966,49.7848705 43.6272406,49.9334551 C43.3001846,50.0820398 42.9275537,50.0943956 42.5914046,49.9678017 L32.8246185,46.3335984 C32.4876285,46.2082413 32.2145575,45.9534157 32.0660063,45.6256735 C31.9174551,45.2979313 31.9057114,44.9243821 32.0333814,44.5879256 L35.663652,34.822977 C35.7887726,34.4856651 36.0435554,34.2125243 36.3711493,34.064502 C36.6987431,33.9164798 37.0718858,33.9058945 37.4073156,34.0351081 Z M21.2672805,22.0823126 L31.097672,25.5448156 C31.4374322,25.6632652 31.7156007,25.9131106 31.869962,26.238471 C32.0243234,26.5638315 32.041998,26.9375597 31.9190328,27.2760671 L28.4563487,37.0965913 C28.3380408,37.4367584 28.0884942,37.7152601 27.763523,37.8698063 C27.4385517,38.0243525 27.0652706,38.0420483 26.7271681,37.9189358 L16.9010995,34.4564328 C16.5620647,34.3369999 16.2846629,34.0870289 16.1304561,33.7619942 C15.9762493,33.4369595 15.957993,33.0637469 16.0797388,32.7251812 L19.5380999,22.904657 C19.6554133,22.5637575 19.9048331,22.2844784 20.2301347,22.129775 C20.5554363,21.9750717 20.9292393,21.9579655 21.2672805,22.0823126 Z M37.2702813,11.0810768 L47.0964188,14.5441162 C47.4369129,14.6615883 47.7158599,14.9113455 47.8703793,15.2370872 C48.0248986,15.5628288 48.0419845,15.9371375 47.9177853,16.2756359 L44.4593999,26.0976815 C44.3401091,26.4371749 44.0904354,26.714952 43.7657872,26.8693674 C43.4411391,27.0237828 43.0683703,27.0420638 42.7302072,26.9201534 L32.8997467,23.4571139 C32.5600424,23.3387609 32.2821082,23.0886382 32.1284492,22.7629963 C31.9747902,22.4373544 31.9583058,22.0635305 32.0827032,21.7255942 L35.5410886,11.9035486 C35.6593973,11.5633288 35.9089456,11.284784 36.2339192,11.1302139 C36.5588927,10.9756437 36.9321764,10.9579452 37.2702813,11.0810768 Z M21.2703806,0.0828215382 L31.0999399,3.54615556 C31.4397626,3.66451871 31.7177935,3.91466266 31.8715061,4.24033224 C32.0252186,4.56600183 32.0417087,4.93985754 31.917268,5.27782257 L28.4620028,15.0963745 C28.3436528,15.4366232 28.0940176,15.7151918 27.7689309,15.8697751 C27.4438442,16.0243584 27.0704305,16.0420584 26.7322079,15.9189163 L16.9026486,12.4555823 C16.5627677,12.3371043 16.2845003,12.0871989 16.1300842,11.7617604 C15.975668,11.4363219 15.9579871,11.062504 16.080996,10.7239153 L19.5405857,0.9010342 C19.6588209,0.560843736 19.9086944,0.282511889 20.2340119,0.12863301 C20.5593294,-0.0252458695 20.932781,-0.04175386 21.2703806,0.0828215382 Z" id="Combined-Shape" fill="#FFFFFF"></path>
    </g>
</svg>